<svg id="visual" viewBox="0 350 900 250" xmlns="http://www.w3.org/2000/svg" xmlns:xlink="http://www.w3.org/1999/xlink" version="1.1"><rect x="0" y="0" width="900" height="600" fill="#00274f"></rect><path d="M0 400L15 405.5C30 411 60 422 90 423C120 424 150 415 180 407.5C210 400 240 394 270 394C300 394 330 400 360 405C390 410 420 414 450 416.2C480 418.3 510 418.7 540 420C570 421.3 600 423.7 630 427C660 430.3 690 434.7 720 435.8C750 437 780 435 810 432C840 429 870 425 885 423L900 421L900 601L885 601C870 601 840 601 810 601C780 601 750 601 720 601C690 601 660 601 630 601C600 601 570 601 540 601C510 601 480 601 450 601C420 601 390 601 360 601C330 601 300 601 270 601C240 601 210 601 180 601C150 601 120 601 90 601C60 601 30 601 15 601L0 601Z" fill="#fa4947"></path><path d="M0 432L15 431.7C30 431.3 60 430.7 90 428.8C120 427 150 424 180 428.7C210 433.3 240 445.7 270 450.5C300 455.3 330 452.7 360 450.7C390 448.7 420 447.3 450 442.2C480 437 510 428 540 424.8C570 421.7 600 424.3 630 423.3C660 422.3 690 417.7 720 418.8C750 420 780 427 810 433.3C840 439.7 870 445.3 885 448.2L900 451L900 601L885 601C870 601 840 601 810 601C780 601 750 601 720 601C690 601 660 601 630 601C600 601 570 601 540 601C510 601 480 601 450 601C420 601 390 601 360 601C330 601 300 601 270 601C240 601 210 601 180 601C150 601 120 601 90 601C60 601 30 601 15 601L0 601Z" fill="#e5335e"></path><path d="M0 448L15 447.8C30 447.7 60 447.3 90 451.5C120 455.7 150 464.3 180 468.8C210 473.3 240 473.7 270 471.8C300 470 330 466 360 463.7C390 461.3 420 460.7 450 456.5C480 452.3 510 444.7 540 445.8C570 447 600 457 630 457.7C660 458.3 690 449.7 720 448C750 446.3 780 451.7 810 453.3C840 455 870 453 885 452L900 451L900 601L885 601C870 601 840 601 810 601C780 601 750 601 720 601C690 601 660 601 630 601C600 601 570 601 540 601C510 601 480 601 450 601C420 601 390 601 360 601C330 601 300 601 270 601C240 601 210 601 180 601C150 601 120 601 90 601C60 601 30 601 15 601L0 601Z" fill="#c72b6f"></path><path d="M0 476L15 479.5C30 483 60 490 90 488.7C120 487.3 150 477.7 180 476C210 474.3 240 480.7 270 485.2C300 489.7 330 492.3 360 492.8C390 493.3 420 491.7 450 489C480 486.3 510 482.7 540 483C570 483.3 600 487.7 630 488.3C660 489 690 486 720 481C750 476 780 469 810 466C840 463 870 464 885 464.5L900 465L900 601L885 601C870 601 840 601 810 601C780 601 750 601 720 601C690 601 660 601 630 601C600 601 570 601 540 601C510 601 480 601 450 601C420 601 390 601 360 601C330 601 300 601 270 601C240 601 210 601 180 601C150 601 120 601 90 601C60 601 30 601 15 601L0 601Z" fill="#a32d78"></path><path d="M0 490L15 491.8C30 493.7 60 497.3 90 499.5C120 501.7 150 502.3 180 505.3C210 508.3 240 513.7 270 511.5C300 509.3 330 499.7 360 494.2C390 488.7 420 487.3 450 490.8C480 494.3 510 502.7 540 506.3C570 510 600 509 630 507.2C660 505.3 690 502.7 720 504.7C750 506.7 780 513.3 810 517C840 520.7 870 521.3 885 521.7L900 522L900 601L885 601C870 601 840 601 810 601C780 601 750 601 720 601C690 601 660 601 630 601C600 601 570 601 540 601C510 601 480 601 450 601C420 601 390 601 360 601C330 601 300 601 270 601C240 601 210 601 180 601C150 601 120 601 90 601C60 601 30 601 15 601L0 601Z" fill="#7b317a"></path><path d="M0 534L15 531.3C30 528.7 60 523.3 90 523.2C120 523 150 528 180 532C210 536 240 539 270 536.3C300 533.7 330 525.3 360 520.8C390 516.3 420 515.7 450 517.3C480 519 510 523 540 525.8C570 528.7 600 530.3 630 528.2C660 526 690 520 720 520.7C750 521.3 780 528.7 810 529.2C840 529.7 870 523.3 885 520.2L900 517L900 601L885 601C870 601 840 601 810 601C780 601 750 601 720 601C690 601 660 601 630 601C600 601 570 601 540 601C510 601 480 601 450 601C420 601 390 601 360 601C330 601 300 601 270 601C240 601 210 601 180 601C150 601 120 601 90 601C60 601 30 601 15 601L0 601Z" fill="#523272"></path><path d="M0 554L15 551.2C30 548.3 60 542.7 90 539.5C120 536.3 150 535.7 180 538.2C210 540.7 240 546.3 270 548C300 549.7 330 547.3 360 549C390 550.7 420 556.3 450 554.7C480 553 510 544 540 542C570 540 600 545 630 546.2C660 547.3 690 544.7 720 546.7C750 548.7 780 555.3 810 558C840 560.7 870 559.3 885 558.7L900 558L900 601L885 601C870 601 840 601 810 601C780 601 750 601 720 601C690 601 660 601 630 601C600 601 570 601 540 601C510 601 480 601 450 601C420 601 390 601 360 601C330 601 300 601 270 601C240 601 210 601 180 601C150 601 120 601 90 601C60 601 30 601 15 601L0 601Z" fill="#2b2e64"></path><path d="M0 571L15 571.3C30 571.7 60 572.3 90 574C120 575.7 150 578.3 180 577.7C210 577 240 573 270 573.7C300 574.3 330 579.7 360 582.2C390 584.7 420 584.3 450 580C480 575.7 510 567.3 540 564.3C570 561.3 600 563.7 630 564.2C660 564.7 690 563.3 720 565.2C750 567 780 572 810 575.7C840 579.3 870 581.7 885 582.8L900 584L900 601L885 601C870 601 840 601 810 601C780 601 750 601 720 601C690 601 660 601 630 601C600 601 570 601 540 601C510 601 480 601 450 601C420 601 390 601 360 601C330 601 300 601 270 601C240 601 210 601 180 601C150 601 120 601 90 601C60 601 30 601 15 601L0 601Z" fill="#00274f"></path></svg>