<svg width="130" height="130" viewBox="0 0 100 100" fill="none" xmlns="http://www.w3.org/2000/svg">
<path d="M83.7939 8.39972C89.3008 14.2899 88.5298 25.4252 90.4242 38.3503C92.3185 51.2755 96.8782 65.9906 91.3713 74.4617C85.8645 82.9328 70.2912 85.139 54.872 84.9933C39.4529 84.8477 24.1879 82.3292 14.1655 73.8789C4.14306 65.4079 -0.636871 50.9841 0.0680042 37.2264C0.772879 23.4687 6.94054 10.3562 16.963 4.46598C26.9854 -1.42424 40.8626 -0.133804 53.6826 0.84443C66.5025 1.84348 78.2871 2.4887 83.7939 8.39972Z" fill="#FA4947"/>
<path d="M18.625 63.5V53C18.625 51.7312 19.0734 50.6484 19.9703 49.7516C20.8672 48.8547 21.95 48.4062 23.2187 48.4062H32.4719C33.2156 48.4062 33.9266 48.5922 34.6047 48.9641C35.2828 49.3359 35.8625 49.85 36.3437 50.5062C37.6125 52.3437 39.2312 53.7656 41.2 54.7719C43.1687 55.7781 45.2687 56.2812 47.5 56.2812C49.7312 56.2812 51.8312 55.7781 53.8 54.7719C55.7687 53.7656 57.4094 52.3437 58.7219 50.5062C59.2031 49.85 59.7719 49.3359 60.4281 48.9641C61.0844 48.5922 61.7844 48.4062 62.5281 48.4062H71.7812C73.05 48.4062 74.1328 48.8547 75.0297 49.7516C75.9266 50.6484 76.375 51.7312 76.375 53V63.5H59.3125V55.6906C57.7375 57.1344 55.9328 58.25 53.8984 59.0375C51.8641 59.825 49.7312 60.2187 47.5 60.2187C45.2687 60.2187 43.1469 59.825 41.1344 59.0375C39.1219 58.25 37.3062 57.1344 35.6875 55.6906V63.5H18.625ZM47.5 52.3437C45.9687 52.3437 44.4922 51.9828 43.0703 51.2609C41.6484 50.5391 40.5 49.5437 39.625 48.275C38.925 47.2687 38.0828 46.4594 37.0984 45.8469C36.1141 45.2344 35.0531 44.8187 33.9156 44.6C35.1844 43.2875 37.175 42.2812 39.8875 41.5812C42.6 40.8812 45.1375 40.5312 47.5 40.5312C49.8625 40.5312 52.4109 40.8812 55.1453 41.5812C57.8797 42.2812 59.8812 43.2875 61.15 44.6C60.0125 44.8187 58.9516 45.2344 57.9672 45.8469C56.9828 46.4594 56.1406 47.2687 55.4406 48.275C54.5656 49.5437 53.4172 50.5391 51.9953 51.2609C50.5734 51.9828 49.075 52.3437 47.5 52.3437ZM26.5 43.8125C24.5312 43.8125 22.8359 43.1016 21.4141 41.6797C19.9922 40.2578 19.2812 38.5625 19.2812 36.5937C19.2812 34.5812 19.9922 32.875 21.4141 31.475C22.8359 30.075 24.5312 29.375 26.5 29.375C28.5125 29.375 30.2187 30.075 31.6187 31.475C33.0187 32.875 33.7187 34.5812 33.7187 36.5937C33.7187 38.5625 33.0187 40.2578 31.6187 41.6797C30.2187 43.1016 28.5125 43.8125 26.5 43.8125ZM68.5 43.8125C66.5312 43.8125 64.8359 43.1016 63.4141 41.6797C61.9922 40.2578 61.2812 38.5625 61.2812 36.5937C61.2812 34.5812 61.9922 32.875 63.4141 31.475C64.8359 30.075 66.5312 29.375 68.5 29.375C70.5125 29.375 72.2187 30.075 73.6187 31.475C75.0187 32.875 75.7187 34.5812 75.7187 36.5937C75.7187 38.5625 75.0187 40.2578 73.6187 41.6797C72.2187 43.1016 70.5125 43.8125 68.5 43.8125ZM47.5 35.9375C45.5312 35.9375 43.8359 35.2266 42.4141 33.8047C40.9922 32.3828 40.2812 30.6875 40.2812 28.7187C40.2812 26.7062 40.9922 25 42.4141 23.6C43.8359 22.2 45.5312 21.5 47.5 21.5C49.5125 21.5 51.2187 22.2 52.6187 23.6C54.0187 25 54.7187 26.7062 54.7187 28.7187C54.7187 30.6875 54.0187 32.3828 52.6187 33.8047C51.2187 35.2266 49.5125 35.9375 47.5 35.9375Z" fill="#FDFFFA"/>
</svg>
