<svg width="150" height="150" viewBox="0 0 150 150" fill="none" xmlns="http://www.w3.org/2000/svg">
<path d="M135.1 14.8C142.8 18.6 139.6 39.2 140.6 55.4C141.5 71.6 146.6 83.3 142.4 90.8C138.3 98.2 124.8 101.3 114.5 113.4C104.2 125.4 97.1 146.5 88 149.2C78.9 151.9 67.9 136.3 52.3 125.9C36.7 115.6 16.6 110.5 11.3 99.3C5.9 88.2 15.3 71 23.5 55.7C31.7 40.5 38.7 27.3 49.6 24.6C60.5 21.9 75.3 29.6 92 26.9C108.7 24.2 127.4 11 135.1 14.8Z" fill="#FA4947"/>
<g clip-path="url(#clip0_1_2)">
<path d="M57.7292 96.6667C57.5208 96.3889 58.1979 95.2951 59.7604 93.3854C61.3229 91.4757 63.1111 89.4444 65.125 87.2917C67.4167 84.7222 70.0903 81.875 73.1458 78.75C73.9792 77.5 75.125 76.875 76.5833 76.875C78.0417 76.875 79.2569 77.4306 80.2292 78.5417C81.0625 79.6528 81.375 80.9201 81.1667 82.3437C80.9583 83.7674 80.1944 84.7917 78.875 85.4167C75.0556 87.7083 71.6528 89.7222 68.6667 91.4583C66.0278 92.9167 63.5972 94.2187 61.375 95.3646C59.1528 96.5104 57.9375 96.9444 57.7292 96.6667ZM71.7917 125.833C71.4444 125.833 71.0972 125.764 70.75 125.625C70.4028 125.486 70.125 125.243 69.9167 124.896C69.6389 124.479 69.3611 123.906 69.0833 123.177C68.8056 122.448 68.6667 121.597 68.6667 120.625C68.6667 120 68.7014 119.427 68.7708 118.906C68.8403 118.385 68.9444 117.847 69.0833 117.292C67.2083 116.944 65.6285 116.007 64.3437 114.479C63.059 112.951 62.4167 111.181 62.4167 109.167C62.4167 108.889 62.5208 108.16 62.7292 106.979C57.5903 105.174 53.441 102.292 50.2813 98.3333C47.1215 94.375 45.0903 89.2708 44.1875 83.0208C43.8403 83.3681 43.4583 83.6458 43.0417 83.8542C42.625 84.0625 42.1389 84.1667 41.5833 84.1667C40.5417 84.1667 39.2396 83.3854 37.6771 81.8229C36.1146 80.2604 35.3333 76.875 35.3333 71.6667C35.3333 66.875 36.7396 62.5521 39.5521 58.6979C42.3646 54.8437 45.125 52.9167 47.8333 52.9167C48.7361 52.9167 49.309 53.316 49.5521 54.1146C49.7951 54.9132 49.9167 55.6944 49.9167 56.4583C52.5556 52.7083 55.8715 49.6181 59.8646 47.1875C63.8576 44.7569 68.25 43.2639 73.0417 42.7083C73.4583 40.6944 74.4653 39.1146 76.0625 37.9687C77.6597 36.8229 79.3611 36.25 81.1667 36.25V40.4167C81.4444 40 81.7917 39.6528 82.2083 39.375C82.5556 39.0972 82.9896 38.8542 83.5104 38.6458C84.0312 38.4375 84.6389 38.3333 85.3333 38.3333C86.0278 38.3333 86.6354 38.4375 87.1562 38.6458C87.6771 38.8542 88.1111 39.0972 88.4583 39.375C88.875 39.6528 89.2222 40 89.5 40.4167C88.4583 40.4167 87.5903 40.7292 86.8958 41.3542C86.2014 41.9792 85.75 42.7431 85.5417 43.6458C89.2917 44.6181 92.7639 46.2153 95.9583 48.4375C99.1528 50.6597 101.861 53.3333 104.083 56.4583C104.083 55.6944 104.205 54.9132 104.448 54.1146C104.691 53.316 105.264 52.9167 106.167 52.9167C108.875 52.9167 111.635 54.8437 114.448 58.6979C117.26 62.5521 118.667 66.875 118.667 71.6667C118.667 76.875 117.885 80.2604 116.323 81.8229C114.76 83.3854 113.458 84.1667 112.417 84.1667C111.931 84.1667 111.462 84.0799 111.01 83.9062C110.559 83.7326 110.16 83.4722 109.812 83.125C108.84 90.0694 106.462 95.6076 102.677 99.7396C98.8924 103.872 93.875 106.632 87.625 108.021C87.8333 108.993 88.3021 109.774 89.0312 110.365C89.7604 110.955 90.6111 111.25 91.5833 111.25H93.9792C94.4653 111.25 94.8819 111.389 95.2292 111.667C95.5764 111.944 95.8194 112.292 95.9583 112.708C96.3056 113.819 96.9132 114.861 97.7812 115.833C98.6493 116.806 99.4653 117.604 100.229 118.229C100.785 118.715 101.045 119.288 101.01 119.948C100.976 120.608 100.681 121.111 100.125 121.458C99.3611 122.014 98.3889 122.5 97.2083 122.917C96.0278 123.333 94.5 123.611 92.625 123.75C92.2778 123.75 91.9306 123.681 91.5833 123.542C91.2361 123.403 90.9583 123.16 90.75 122.812C90.4722 122.396 90.1944 121.823 89.9167 121.094C89.6389 120.365 89.5 119.514 89.5 118.542C89.5 117.917 89.5347 117.344 89.6042 116.823C89.6736 116.302 89.7778 115.764 89.9167 115.208C88.25 114.861 86.8437 114.097 85.6979 112.917C84.5521 111.736 83.8056 110.347 83.4583 108.75C82.4167 108.889 81.375 108.993 80.3333 109.062C79.2917 109.132 78.1806 109.167 77 109.167C75.1944 109.167 73.441 109.08 71.7396 108.906C70.0382 108.733 68.3889 108.472 66.7917 108.125L66.5833 109.167C66.5833 110.347 66.9826 111.337 67.7812 112.135C68.5799 112.934 69.5694 113.333 70.75 113.333H73.1458C73.6319 113.333 74.0486 113.472 74.3958 113.75C74.7431 114.028 74.9861 114.375 75.125 114.792C75.4722 115.903 76.0799 116.944 76.9479 117.917C77.816 118.889 78.6319 119.687 79.3958 120.312C79.9514 120.799 80.2118 121.372 80.1771 122.031C80.1424 122.691 79.8472 123.194 79.2917 123.542C78.5278 124.097 77.5556 124.583 76.375 125C75.1944 125.417 73.6667 125.694 71.7917 125.833ZM105.125 85.1042C105.472 83.7153 105.733 82.2569 105.906 80.7292C106.08 79.2014 106.167 77.5694 106.167 75.8333C106.167 67.7778 103.319 60.9028 97.625 55.2083C91.9306 49.5139 85.0556 46.6667 77 46.6667C68.9444 46.6667 62.0694 49.5139 56.375 55.2083C50.6806 60.9028 47.8333 67.7778 47.8333 75.8333C47.8333 77.5 47.9201 79.0972 48.0938 80.625C48.2674 82.1528 48.5278 83.6111 48.875 85C49.2222 83.6111 49.691 82.2396 50.2813 80.8854C50.8715 79.5312 51.5486 78.2639 52.3125 77.0833C51.8958 76.1111 51.566 75.0868 51.3229 74.0104C51.0799 72.934 50.9583 71.8056 50.9583 70.625C50.9583 66.25 52.4688 62.5521 55.4896 59.5312C58.5104 56.5104 62.2083 55 66.5833 55C68.5972 55 70.4896 55.3646 72.2604 56.0937C74.0312 56.8229 75.6111 57.8125 77 59.0625C78.3889 57.8125 79.9687 56.8229 81.7396 56.0937C83.5104 55.3646 85.4028 55 87.4167 55C91.7917 55 95.4896 56.5104 98.5104 59.5312C101.531 62.5521 103.042 66.25 103.042 70.625C103.042 71.8056 102.92 72.934 102.677 74.0104C102.434 75.0868 102.069 76.1111 101.583 77.0833C102.347 78.2639 103.042 79.5312 103.667 80.8854C104.292 82.2396 104.778 83.6458 105.125 85.1042ZM77 105C83.0417 105 88.1285 104.062 92.2604 102.187C96.3924 100.312 99.6042 97.5 101.896 93.75C101.896 93.5417 101.913 93.3333 101.948 93.125C101.983 92.9167 102 92.7083 102 92.5C102 90.4167 101.757 88.4028 101.271 86.4583C100.785 84.5139 100.056 82.6736 99.0833 80.9375C97.625 82.5347 95.9062 83.8194 93.9271 84.7917C91.9479 85.7639 89.7778 86.25 87.4167 86.25C86.8611 86.25 86.3056 86.2153 85.75 86.1458C85.1944 86.0764 84.6389 85.9722 84.0833 85.8333C84.4306 85.3472 84.691 84.8437 84.8646 84.3229C85.0382 83.8021 85.1597 83.2639 85.2292 82.7083C85.2986 82.5694 85.3333 82.4306 85.3333 82.2917V81.875C85.6806 81.9444 86.0278 81.9965 86.375 82.0312C86.7222 82.066 87.0694 82.0833 87.4167 82.0833C90.6111 82.0833 93.3194 80.9722 95.5417 78.75C97.7639 76.5278 98.875 73.8194 98.875 70.625C98.875 67.4306 97.7639 64.7222 95.5417 62.5C93.3194 60.2778 90.6111 59.1667 87.4167 59.1667C86.0278 59.1667 84.6736 59.4271 83.3542 59.9479C82.0347 60.4687 80.8542 61.2153 79.8125 62.1875L77 64.6875L74.1875 62.1875C73.1458 61.2153 71.9653 60.4687 70.6458 59.9479C69.3264 59.4271 67.9722 59.1667 66.5833 59.1667C63.3889 59.1667 60.6806 60.2778 58.4583 62.5C56.2361 64.7222 55.125 67.4306 55.125 70.625C55.125 73.4722 56.0104 75.9201 57.7813 77.9687C59.5521 80.0174 61.7569 81.3194 64.3958 81.875L61.2708 85.3125C60.0208 84.8264 58.8576 84.2187 57.7813 83.4896C56.7049 82.7604 55.75 81.9097 54.9167 80.9375C53.9444 82.6736 53.2153 84.5139 52.7292 86.4583C52.2431 88.4028 52 90.4167 52 92.5V93.5417C54.3611 97.2917 57.625 100.139 61.7917 102.083C65.9583 104.028 71.0278 105 77 105ZM87.4167 77.9167C85.6806 77.9167 84.2049 77.2049 82.9896 75.7812C81.7743 74.3576 81.1667 72.6389 81.1667 70.625C81.1667 68.6111 81.7743 66.8924 82.9896 65.4687C84.2049 64.0451 85.6806 63.3333 87.4167 63.3333C89.1528 63.3333 90.6285 64.0451 91.8437 65.4687C93.059 66.8924 93.6667 68.6111 93.6667 70.625C93.6667 72.6389 93.059 74.3576 91.8437 75.7812C90.6285 77.2049 89.1528 77.9167 87.4167 77.9167ZM88.9792 68.5417C89.4653 68.5417 89.8472 68.3854 90.125 68.0729C90.4028 67.7604 90.5417 67.3958 90.5417 66.9792C90.5417 66.5625 90.3854 66.1979 90.0729 65.8854C89.7604 65.5729 89.3958 65.4167 88.9792 65.4167C88.4931 65.4167 88.1111 65.5729 87.8333 65.8854C87.5556 66.1979 87.4167 66.5625 87.4167 66.9792C87.4167 67.4653 87.5729 67.8472 87.8854 68.125C88.1979 68.4028 88.5625 68.5417 88.9792 68.5417ZM66.5833 77.9167C64.8472 77.9167 63.3715 77.2049 62.1562 75.7812C60.941 74.3576 60.3333 72.6389 60.3333 70.625C60.3333 68.6111 60.941 66.8924 62.1562 65.4687C63.3715 64.0451 64.8472 63.3333 66.5833 63.3333C68.3194 63.3333 69.7951 64.0451 71.0104 65.4687C72.2257 66.8924 72.8333 68.6111 72.8333 70.625C72.8333 72.6389 72.2257 74.3576 71.0104 75.7812C69.7951 77.2049 68.3194 77.9167 66.5833 77.9167ZM68.1458 68.5417C68.6319 68.5417 69.0139 68.3854 69.2917 68.0729C69.5694 67.7604 69.7083 67.3958 69.7083 66.9792C69.7083 66.5625 69.5521 66.1979 69.2396 65.8854C68.9271 65.5729 68.5625 65.4167 68.1458 65.4167C67.6597 65.4167 67.2778 65.5729 67 65.8854C66.7222 66.1979 66.5833 66.5625 66.5833 66.9792C66.5833 67.4653 66.7396 67.8472 67.0521 68.125C67.3646 68.4028 67.7292 68.5417 68.1458 68.5417Z" fill="#FDFFFA"/>
</g>
<defs>
<clipPath id="clip0_1_2">
<rect width="100" height="100" fill="white" transform="translate(27 20)"/>
</clipPath>
</defs>
</svg>
