<svg width="130" height="130" viewBox="0 0 130 130" fill="none" xmlns="http://www.w3.org/2000/svg">
<path d="M98.306 3.10155C109.165 4.40308 113.655 20.5221 113.968 34.8389C114.385 49.0556 110.627 61.5704 109.06 77.2889C107.599 93.1075 108.121 112.13 99.1413 121.541C90.0574 130.952 71.2632 130.552 56.5411 125.345C41.819 120.039 30.9601 109.927 26.6792 99.1146C22.2939 88.3018 24.3822 76.6882 19.3704 66.376C14.3586 55.9638 2.14235 46.7529 0.262934 37.2417C-1.61649 27.6304 6.8409 17.7188 17.2821 16.217C27.6189 14.7152 40.1484 21.7235 55.0793 18.5197C69.9059 15.2158 87.3427 1.6999 98.306 3.10155Z" fill="#FA4947"/>
<path d="M53.4875 102.575H36.4375C34.8875 102.575 33.5312 101.969 32.3687 100.756C31.2062 99.5437 30.625 98.1292 30.625 96.5125V78.7292C33.4667 78.3924 35.9047 77.2304 37.9391 75.2432C39.9734 73.2561 40.9906 70.8142 40.9906 67.9177C40.9906 65.0212 39.9734 62.5793 37.9391 60.5922C35.9047 58.605 33.4667 57.4431 30.625 57.1062V39.3229C30.625 37.7062 31.2062 36.2917 32.3687 35.0792C33.5312 33.8667 34.8875 33.2604 36.4375 33.2604H53.5844C54.2948 30.566 55.5703 28.3094 57.4109 26.4906C59.2516 24.6719 61.4635 23.7625 64.0469 23.7625C66.6302 23.7625 68.8422 24.6719 70.6828 26.4906C72.5234 28.3094 73.799 30.566 74.5094 33.2604H91.2687C92.8187 33.2604 94.175 33.8667 95.3375 35.0792C96.5 36.2917 97.0812 37.7062 97.0812 39.3229V56.8031C99.6646 57.5441 101.78 58.9418 103.427 60.9964C105.073 63.0509 105.897 65.4253 105.897 68.1198C105.897 70.8142 105.073 73.0708 103.427 74.8896C101.78 76.7083 99.6646 77.9882 97.0812 78.7292V96.5125C97.0812 98.1292 96.5 99.5437 95.3375 100.756C94.175 101.969 92.8187 102.575 91.2687 102.575H74.2187C73.8958 99.3417 72.7495 96.7314 70.7797 94.7443C68.8099 92.7571 66.501 91.7635 63.8531 91.7635C61.2052 91.7635 58.8964 92.7571 56.9266 94.7443C54.9568 96.7314 53.8104 99.3417 53.4875 102.575ZM36.4375 96.5125H49.0312C50.6458 92.4035 52.9026 89.5743 55.8016 88.025C58.7007 86.4757 61.3809 85.701 63.8423 85.701C66.3037 85.701 68.9875 86.4757 71.8937 88.025C74.8 89.5743 77.0604 92.4035 78.675 96.5125H91.2687V72.7677H95.6281C96.9198 72.7677 97.9854 72.3299 98.825 71.4542C99.6646 70.5785 100.084 69.467 100.084 68.1198C100.084 66.7726 99.6646 65.6611 98.825 64.7854C97.9854 63.9097 96.9198 63.4719 95.6281 63.4719H91.2687V39.3229H68.5031V34.4729C68.5031 33.1257 68.0833 32.0142 67.2437 31.1385C66.4042 30.2628 65.3385 29.825 64.0469 29.825C62.7552 29.825 61.6896 30.2628 60.85 31.1385C60.0104 32.0142 59.5906 33.1257 59.5906 34.4729V39.3229H36.4375V52.4583C39.5472 53.6585 42.0522 55.6688 43.9526 58.4891C45.8529 61.3094 46.8031 64.4598 46.8031 67.9402C46.8031 71.3606 45.8505 74.4854 43.9453 77.3146C42.0401 80.1437 39.5375 82.1646 36.4375 83.3771V96.5125Z" fill="#FDFFFA"/>
</svg>
