<svg width="130" height="130" viewBox="0 0 130 130" fill="none" xmlns="http://www.w3.org/2000/svg">
<path d="M106.724 37.5363C118.415 47.0612 129.778 55.7394 129.997 65.6877C130.215 75.6359 119.18 86.8541 114.263 99.554C109.237 112.148 110.329 126.224 104.101 129.293C97.8735 132.362 84.4341 124.53 72.0874 123.155C59.6315 121.779 48.2681 126.753 43.6791 123.155C39.09 119.556 41.2753 107.386 38.7622 97.2257C36.2492 87.0658 29.0378 79.0225 24.9951 66.0052C20.9524 53.0936 20.0783 35.208 28.273 24.6247C36.4677 14.0415 53.7312 10.8665 68.3725 14.359C83.0137 17.8515 95.0327 28.1172 106.724 37.5363Z" fill="#FA4947"/>
<path d="M51.1875 109.667C49.5208 109.667 48.0625 109.042 46.8125 107.792C45.5625 106.542 44.9375 105.083 44.9375 103.417V93H57.8542V79.7708C55.2153 79.9792 52.5764 79.6146 49.9375 78.6771C47.2986 77.7396 44.9375 76.2639 42.8542 74.25V68.2083H37.6458L24 54.5625C26.5 52.2014 29.4861 50.2743 32.9583 48.7812C36.4306 47.2882 39.9722 46.5417 43.5833 46.5417C45.6667 46.5417 48.0451 46.8715 50.7187 47.5312C53.3924 48.191 55.7708 49.25 57.8542 50.7083V43H105.25V98.7292C105.25 101.785 104.191 104.372 102.073 106.49C99.9549 108.608 97.3681 109.667 94.3125 109.667H51.1875ZM64.1042 93H89.625V98.7292C89.625 100.118 90.059 101.247 90.9271 102.115C91.7951 102.983 92.9236 103.417 94.3125 103.417C95.7014 103.417 96.8299 102.983 97.6979 102.115C98.566 101.247 99 100.118 99 98.7292V49.25H64.1042V55.1875L89.2083 80.2917V84.7708H84.7292L71.6042 71.6458L69.8333 73.7292C68.9306 74.7708 68.0278 75.5694 67.125 76.125C66.2222 76.6806 65.2153 77.2014 64.1042 77.6875V93ZM40.4583 61.9583H49.1042V71.2292C50.2847 71.9931 51.4479 72.566 52.5937 72.9479C53.7396 73.3299 54.9028 73.5208 56.0833 73.5208C57.8194 73.5208 59.5903 73.0521 61.3958 72.1146C63.2014 71.1771 64.5208 70.2222 65.3542 69.25L67.125 67.1667L59.9375 59.9792C57.7153 57.7569 55.2153 56.0035 52.4375 54.7187C49.6597 53.434 46.7083 52.7917 43.5833 52.7917C41.7083 52.7917 40.0069 53.0174 38.4792 53.4687C36.9514 53.9201 35.3889 54.5278 33.7917 55.2917L40.4583 61.9583ZM83.375 99.25H51.1875V103.417H84.8333C84.4167 103 84.0694 102.427 83.7917 101.698C83.5139 100.969 83.375 100.153 83.375 99.25Z" fill="#FDFFFA"/>
</svg>
