<svg xmlns="http://www.w3.org/2000/svg" version="1.1" xmlns:xlink="http://www.w3.org/1999/xlink" xmlns:svgjs="http://svgjs.com/svgjs" width="154.000000pt" height="153.000000pt"><svg version="1.0" xmlns="http://www.w3.org/2000/svg" width="154.000000pt" height="153.000000pt" viewBox="0 0 154.000000 153.000000" preserveAspectRatio="xMidYMid meet">
<rect id="SvgjsRect1000" x="0" y="0" width="237.6" height="252" fill="#fdfffa"></rect>
<g transform="translate(0.000000,153.000000) scale(0.100000,-0.100000)" fill="#00274f" stroke="none">
<path d="M1055 821 c-70 -18 -124 -61 -144 -114 -16 -41 -13 -114 5 -153 23
-48 66 -70 200 -105 126 -32 154 -48 154 -86 0 -39 -18 -61 -58 -73 -87 -24
-162 -3 -189 54 -16 35 -18 36 -75 36 -54 0 -58 -2 -58 -22 1 -39 36 -104 71
-130 51 -38 105 -52 194 -52 121 1 188 36 226 119 36 79 16 168 -48 211 -18
12 -81 33 -140 48 -140 34 -162 44 -169 72 -15 61 36 99 124 92 45 -4 60 -10
79 -32 13 -15 23 -34 23 -42 0 -11 15 -14 65 -14 73 0 76 4 50 68 -34 81 -101
122 -209 127 -39 3 -84 1 -101 -4z"></path>
<path d="M620 581 c0 -279 -6 -301 -77 -301 -44 0 -73 38 -73 96 l0 44 -60 0
-60 0 0 -57 c0 -69 28 -131 69 -156 77 -45 203 -41 268 9 54 41 63 92 63 361
l0 233 -65 0 -65 0 0 -229z"></path>
</g>
</svg><style>@media (prefers-color-scheme: light) { :root { filter: none; } }
</style></svg>