<svg width="200" height="200" viewBox="0 0 200 200" fill="none" xmlns="http://www.w3.org/2000/svg">
<path d="M138.094 60.7982C150.993 70.3466 164.415 79.1942 170.254 91.8086C176.181 104.423 174.525 120.804 169.121 135.433C163.63 150.063 154.392 162.94 142.277 166.882C130.162 170.824 115.084 165.831 99.9192 166.006C84.7541 166.181 69.4146 171.612 58.3458 167.407C47.1898 163.115 40.3045 149.187 37.9512 135.258C35.598 121.417 37.7769 107.577 42.6577 95.4002C47.6256 83.2238 55.2953 72.6242 65.3183 62.1122C75.3412 51.6002 87.7174 41.0882 100.181 41.0006C112.644 40.913 125.107 51.1622 138.094 60.7982Z" fill="#FA4947"/>
<g clip-path="url(#clip0_1_2)">
<path d="M85.1667 151.667V130.833H64.3333V89.1667H85.1667V68.3333H126.833V89.1667H147.667V130.833H126.833V151.667H85.1667ZM70.5833 106.875H93.5C94.0261 106.875 94.5259 107 94.9994 107.251C95.4728 107.502 95.8411 107.828 96.1042 108.229L100.896 115.521L107.146 96.5625C107.36 95.9375 107.748 95.4167 108.31 95C108.872 94.5833 109.501 94.375 110.197 94.375C110.732 94.375 111.208 94.5139 111.625 94.7917C112.042 95.0694 112.424 95.4167 112.771 95.8333L120.167 106.875H141.417V95.4167H120.583V74.5833H91.4167V95.4167H70.5833V106.875ZM91.4167 145.417H120.583V124.583H141.417V113.125H118.5C117.944 113.125 117.458 112.986 117.042 112.708C116.625 112.431 116.243 112.083 115.896 111.667L111.104 104.479L104.75 123.437C104.543 124.062 104.156 124.583 103.588 125C103.02 125.417 102.4 125.625 101.729 125.625C101.174 125.625 100.687 125.486 100.271 125.208C99.8542 124.931 99.5069 124.583 99.2292 124.167L91.8333 113.125H70.5833V124.583H91.4167V145.417Z" fill="#FDFFFA"/>
</g>
<defs>
<clipPath id="clip0_1_2">
<rect width="100" height="100" fill="white" transform="translate(56 50)"/>
</clipPath>
</defs>
</svg>
