<svg id="visual" viewBox="0 0 900 600" width="900" height="600" xmlns="http://www.w3.org/2000/svg" xmlns:xlink="http://www.w3.org/1999/xlink" version="1.1"><rect x="0" y="0" width="900" height="600" fill="#00274f"></rect><path d="M0 565L39 565L39 565L78 565L78 578L117 578L117 573L157 573L157 575L196 575L196 556L235 556L235 552L274 552L274 549L313 549L313 564L352 564L352 553L391 553L391 569L430 569L430 561L470 561L470 556L509 556L509 557L548 557L548 578L587 578L587 551L626 551L626 579L665 579L665 558L704 558L704 572L743 572L743 546L783 546L783 571L822 571L822 573L861 573L861 565L900 565L900 550L900 601L900 601L861 601L861 601L822 601L822 601L783 601L783 601L743 601L743 601L704 601L704 601L665 601L665 601L626 601L626 601L587 601L587 601L548 601L548 601L509 601L509 601L470 601L470 601L430 601L430 601L391 601L391 601L352 601L352 601L313 601L313 601L274 601L274 601L235 601L235 601L196 601L196 601L157 601L157 601L117 601L117 601L78 601L78 601L39 601L39 601L0 601Z" fill="#fa4947"></path><path d="M0 580L39 580L39 579L78 579L78 567L117 567L117 574L157 574L157 566L196 566L196 571L235 571L235 573L274 573L274 580L313 580L313 558L352 558L352 569L391 569L391 582L430 582L430 570L470 570L470 555L509 555L509 562L548 562L548 558L587 558L587 574L626 574L626 568L665 568L665 572L704 572L704 556L743 556L743 583L783 583L783 583L822 583L822 571L861 571L861 556L900 556L900 576L900 601L900 601L861 601L861 601L822 601L822 601L783 601L783 601L743 601L743 601L704 601L704 601L665 601L665 601L626 601L626 601L587 601L587 601L548 601L548 601L509 601L509 601L470 601L470 601L430 601L430 601L391 601L391 601L352 601L352 601L313 601L313 601L274 601L274 601L235 601L235 601L196 601L196 601L157 601L157 601L117 601L117 601L78 601L78 601L39 601L39 601L0 601Z" fill="#cf2b6b"></path><path d="M0 570L39 570L39 584L78 584L78 578L117 578L117 572L157 572L157 567L196 567L196 586L235 586L235 583L274 583L274 565L313 565L313 565L352 565L352 579L391 579L391 573L430 573L430 579L470 579L470 584L509 584L509 584L548 584L548 585L587 585L587 569L626 569L626 569L665 569L665 577L704 577L704 581L743 581L743 584L783 584L783 567L822 567L822 580L861 580L861 579L900 579L900 580L900 601L900 601L861 601L861 601L822 601L822 601L783 601L783 601L743 601L743 601L704 601L704 601L665 601L665 601L626 601L626 601L587 601L587 601L548 601L548 601L509 601L509 601L470 601L470 601L430 601L430 601L391 601L391 601L352 601L352 601L313 601L313 601L274 601L274 601L235 601L235 601L196 601L196 601L157 601L157 601L117 601L117 601L78 601L78 601L39 601L39 601L0 601Z" fill="#8f2f7a"></path><path d="M0 588L39 588L39 574L78 574L78 581L117 581L117 579L157 579L157 581L196 581L196 582L235 582L235 578L274 578L274 589L313 589L313 579L352 579L352 581L391 581L391 592L430 592L430 582L470 582L470 578L509 578L509 591L548 591L548 577L587 577L587 580L626 580L626 586L665 586L665 581L704 581L704 591L743 591L743 588L783 588L783 589L822 589L822 574L861 574L861 591L900 591L900 579L900 601L900 601L861 601L861 601L822 601L822 601L783 601L783 601L743 601L743 601L704 601L704 601L665 601L665 601L626 601L626 601L587 601L587 601L548 601L548 601L509 601L509 601L470 601L470 601L430 601L430 601L391 601L391 601L352 601L352 601L313 601L313 601L274 601L274 601L235 601L235 601L196 601L196 601L157 601L157 601L117 601L117 601L78 601L78 601L39 601L39 601L0 601Z" fill="#48316f"></path><path d="M0 595L39 595L39 596L78 596L78 594L117 594L117 591L157 591L157 586L196 586L196 595L235 595L235 591L274 591L274 583L313 583L313 590L352 590L352 590L391 590L391 596L430 596L430 595L470 595L470 591L509 591L509 589L548 589L548 596L587 596L587 585L626 585L626 585L665 585L665 592L704 592L704 592L743 592L743 591L783 591L783 586L822 586L822 587L861 587L861 583L900 583L900 594L900 601L900 601L861 601L861 601L822 601L822 601L783 601L783 601L743 601L743 601L704 601L704 601L665 601L665 601L626 601L626 601L587 601L587 601L548 601L548 601L509 601L509 601L470 601L470 601L430 601L430 601L391 601L391 601L352 601L352 601L313 601L313 601L274 601L274 601L235 601L235 601L196 601L196 601L157 601L157 601L117 601L117 601L78 601L78 601L39 601L39 601L0 601Z" fill="#00274f"></path></svg>