<svg width="180" height="180" viewBox="0 0 180 180" fill="none" xmlns="http://www.w3.org/2000/svg">
<path d="M120.8 35.6C129.1 46.7 131.9 60.3 139.5 74.5C147.2 88.7 159.7 103.5 158.7 116.3C157.7 129 143.3 139.7 128.8 150.5C114.3 161.3 99.6 172.1 87.4 168.8C75.1 165.6 65.2 148.2 51.9 137C38.6 125.8 21.8 120.9 20.3 112C18.7 103.1 32.4 90.2 36.2 72.9C40.1 55.5 34.2 33.7 40.7 22C47.2 10.2 66.1 8.6 82.4 12.2C98.8 15.7 112.5 24.4 120.8 35.6Z" fill="#FA4947"/>
<path d="M88.8958 126.5L58.6875 109.937V84.9375L43.1667 76.5L88.8958 51.5L134.833 76.5V109.521H128.583V80.1458L119.104 84.9375V109.937L88.8958 126.5ZM88.8958 94.4167L121.708 76.5L88.8958 58.8958L56.2917 76.5L88.8958 94.4167ZM88.8958 119.417L112.854 106.187V88.6875L88.8958 101.5L64.9375 88.4792V106.187L88.8958 119.417Z" fill="#FDFFFA"/>
</svg>
