<svg width="180" height="180" viewBox="0 0 180 180" fill="none" xmlns="http://www.w3.org/2000/svg">
<path d="M113.043 56.3933C126.527 63.9805 145.205 66.6232 155.136 76.3416C165.068 85.9747 166.343 102.769 160.512 116.75C154.681 130.731 141.743 141.898 127.621 151.105C113.407 160.227 98.1005 167.558 85.436 164.148C72.6804 160.823 62.567 146.843 48.3536 137.721C34.2312 128.514 15.9178 124.081 10.1778 114.277C4.34664 104.474 11.0889 89.2142 20.2001 78.4728C29.4023 67.7314 40.9735 61.3377 51.8158 52.8981C62.6581 44.4584 72.7715 33.9728 81.9737 35.081C91.176 36.104 99.5583 48.8061 113.043 56.3933Z" fill="#FA4947"/>
<g clip-path="url(#clip0_1_2)">
<path d="M69.1725 143.594C67.0832 143.594 65.3021 142.842 63.8292 141.34C62.3563 139.837 61.6198 138.031 61.6198 135.921C61.6198 133.811 62.3637 132.012 63.8515 130.525C65.3393 129.037 67.1279 128.294 69.2171 128.294C71.3064 128.294 73.0875 129.045 74.5604 130.548C76.0333 132.05 76.7698 133.856 76.7698 135.966C76.7698 138.076 76.0259 139.875 74.5381 141.362C73.0503 142.85 71.2617 143.594 69.1725 143.594ZM111.256 143.594C109.167 143.594 107.385 142.842 105.913 141.34C104.44 139.837 103.703 138.031 103.703 135.921C103.703 133.811 104.447 132.012 105.935 130.525C107.423 129.037 109.211 128.294 111.3 128.294C113.39 128.294 115.171 129.045 116.644 130.548C118.117 132.05 118.853 133.856 118.853 135.966C118.853 138.076 118.109 139.875 116.621 141.362C115.134 142.85 113.345 143.594 111.256 143.594ZM63.724 73.4687L75.2969 97.6937H105.597L118.748 73.4687H63.724ZM60.5677 67.0937H122.543C124.154 67.0937 125.379 67.8375 126.22 69.325C127.06 70.8125 127.059 72.3 126.218 73.7875L112.015 99.6062C111.243 100.952 110.242 102.032 109.01 102.847C107.778 103.661 106.43 104.069 104.966 104.069H73.0875L67.1958 115.119H118.853V121.494H68.1427C65.1969 121.494 63.0752 120.502 61.7776 118.519C60.48 116.535 60.4976 114.304 61.8302 111.825L68.5635 99.2875L52.5719 65.075H44.3656V58.7H56.675L60.5677 67.0937Z" fill="#FDFFFA"/>
</g>
<defs>
<clipPath id="clip0_1_2">
<rect width="101" height="102" fill="white" transform="translate(39 40)"/>
</clipPath>
</defs>
</svg>
