<svg id="visual" viewBox="0 150 900 400" xmlns="http://www.w3.org/2000/svg" xmlns:xlink="http://www.w3.org/1999/xlink" version="1.1"><rect x="0" y="0" width="900" height="600" fill="#00274f"></rect><path d="M0 419L12.5 421.3C25 423.7 50 428.3 75 426C100 423.7 125 414.3 150 414.5C175 414.7 200 424.3 225 423C250 421.7 275 409.3 300 403.3C325 397.3 350 397.7 375 399.8C400 402 425 406 450 411.7C475 417.3 500 424.7 525 429.7C550 434.7 575 437.3 600 431C625 424.7 650 409.3 675 407C700 404.7 725 415.3 750 415.3C775 415.3 800 404.7 825 406C850 407.3 875 420.7 887.5 427.3L900 434L900 601L887.5 601C875 601 850 601 825 601C800 601 775 601 750 601C725 601 700 601 675 601C650 601 625 601 600 601C575 601 550 601 525 601C500 601 475 601 450 601C425 601 400 601 375 601C350 601 325 601 300 601C275 601 250 601 225 601C200 601 175 601 150 601C125 601 100 601 75 601C50 601 25 601 12.5 601L0 601Z" fill="#fa4947"></path><path d="M0 453L12.5 449.2C25 445.3 50 437.7 75 434C100 430.3 125 430.7 150 428C175 425.3 200 419.7 225 418.8C250 418 275 422 300 422.3C325 422.7 350 419.3 375 423.2C400 427 425 438 450 441.2C475 444.3 500 439.7 525 441.2C550 442.7 575 450.3 600 446.7C625 443 650 428 675 420.3C700 412.7 725 412.3 750 417.5C775 422.7 800 433.3 825 435.2C850 437 875 430 887.5 426.5L900 423L900 601L887.5 601C875 601 850 601 825 601C800 601 775 601 750 601C725 601 700 601 675 601C650 601 625 601 600 601C575 601 550 601 525 601C500 601 475 601 450 601C425 601 400 601 375 601C350 601 325 601 300 601C275 601 250 601 225 601C200 601 175 601 150 601C125 601 100 601 75 601C50 601 25 601 12.5 601L0 601Z" fill="#e5335e"></path><path d="M0 481L12.5 480.3C25 479.7 50 478.3 75 478.3C100 478.3 125 479.7 150 474.2C175 468.7 200 456.3 225 451.7C250 447 275 450 300 450C325 450 350 447 375 444.2C400 441.3 425 438.7 450 437.7C475 436.7 500 437.3 525 438.5C550 439.7 575 441.3 600 443.5C625 445.7 650 448.3 675 447.7C700 447 725 443 750 447.8C775 452.7 800 466.3 825 471.3C850 476.3 875 472.7 887.5 470.8L900 469L900 601L887.5 601C875 601 850 601 825 601C800 601 775 601 750 601C725 601 700 601 675 601C650 601 625 601 600 601C575 601 550 601 525 601C500 601 475 601 450 601C425 601 400 601 375 601C350 601 325 601 300 601C275 601 250 601 225 601C200 601 175 601 150 601C125 601 100 601 75 601C50 601 25 601 12.5 601L0 601Z" fill="#c72b6f"></path><path d="M0 474L12.5 472C25 470 50 466 75 470.3C100 474.7 125 487.3 150 490.2C175 493 200 486 225 481.3C250 476.7 275 474.3 300 473.3C325 472.3 350 472.7 375 476.8C400 481 425 489 450 489.3C475 489.7 500 482.3 525 483.2C550 484 575 493 600 496.7C625 500.3 650 498.7 675 492C700 485.3 725 473.7 750 468.3C775 463 800 464 825 467.5C850 471 875 477 887.5 480L900 483L900 601L887.5 601C875 601 850 601 825 601C800 601 775 601 750 601C725 601 700 601 675 601C650 601 625 601 600 601C575 601 550 601 525 601C500 601 475 601 450 601C425 601 400 601 375 601C350 601 325 601 300 601C275 601 250 601 225 601C200 601 175 601 150 601C125 601 100 601 75 601C50 601 25 601 12.5 601L0 601Z" fill="#a32d78"></path><path d="M0 497L12.5 496.7C25 496.3 50 495.7 75 495.7C100 495.7 125 496.3 150 499.5C175 502.7 200 508.3 225 511.8C250 515.3 275 516.7 300 513.8C325 511 350 504 375 498.5C400 493 425 489 450 492C475 495 500 505 525 511.3C550 517.7 575 520.3 600 520C625 519.7 650 516.3 675 511.7C700 507 725 501 750 501.5C775 502 800 509 825 512.7C850 516.3 875 516.7 887.5 516.8L900 517L900 601L887.5 601C875 601 850 601 825 601C800 601 775 601 750 601C725 601 700 601 675 601C650 601 625 601 600 601C575 601 550 601 525 601C500 601 475 601 450 601C425 601 400 601 375 601C350 601 325 601 300 601C275 601 250 601 225 601C200 601 175 601 150 601C125 601 100 601 75 601C50 601 25 601 12.5 601L0 601Z" fill="#7b317a"></path><path d="M0 514L12.5 518.2C25 522.3 50 530.7 75 534.3C100 538 125 537 150 535.3C175 533.7 200 531.3 225 529.7C250 528 275 527 300 527.7C325 528.3 350 530.7 375 533.5C400 536.3 425 539.7 450 540.3C475 541 500 539 525 534.8C550 530.7 575 524.3 600 522C625 519.7 650 521.3 675 522.8C700 524.3 725 525.7 750 525.8C775 526 800 525 825 524.8C850 524.7 875 525.3 887.5 525.7L900 526L900 601L887.5 601C875 601 850 601 825 601C800 601 775 601 750 601C725 601 700 601 675 601C650 601 625 601 600 601C575 601 550 601 525 601C500 601 475 601 450 601C425 601 400 601 375 601C350 601 325 601 300 601C275 601 250 601 225 601C200 601 175 601 150 601C125 601 100 601 75 601C50 601 25 601 12.5 601L0 601Z" fill="#523272"></path><path d="M0 545L12.5 546.2C25 547.3 50 549.7 75 549.8C100 550 125 548 150 547.2C175 546.3 200 546.7 225 548.5C250 550.3 275 553.7 300 553.7C325 553.7 350 550.3 375 549.8C400 549.3 425 551.7 450 550.7C475 549.7 500 545.3 525 546.7C550 548 575 555 600 558.5C625 562 650 562 675 561.3C700 560.7 725 559.3 750 558.2C775 557 800 556 825 555.2C850 554.3 875 553.7 887.5 553.3L900 553L900 601L887.5 601C875 601 850 601 825 601C800 601 775 601 750 601C725 601 700 601 675 601C650 601 625 601 600 601C575 601 550 601 525 601C500 601 475 601 450 601C425 601 400 601 375 601C350 601 325 601 300 601C275 601 250 601 225 601C200 601 175 601 150 601C125 601 100 601 75 601C50 601 25 601 12.5 601L0 601Z" fill="#2b2e64"></path><path d="M0 565L12.5 565.3C25 565.7 50 566.3 75 566.2C100 566 125 565 150 563.7C175 562.3 200 560.7 225 561.5C250 562.3 275 565.7 300 565.8C325 566 350 563 375 563.7C400 564.3 425 568.7 450 572.2C475 575.7 500 578.3 525 579.7C550 581 575 581 600 577.3C625 573.7 650 566.3 675 564.5C700 562.7 725 566.3 750 569.7C775 573 800 576 825 575.7C850 575.3 875 571.7 887.5 569.8L900 568L900 601L887.5 601C875 601 850 601 825 601C800 601 775 601 750 601C725 601 700 601 675 601C650 601 625 601 600 601C575 601 550 601 525 601C500 601 475 601 450 601C425 601 400 601 375 601C350 601 325 601 300 601C275 601 250 601 225 601C200 601 175 601 150 601C125 601 100 601 75 601C50 601 25 601 12.5 601L0 601Z" fill="#00274f"></path></svg>