<svg width="180" height="180" viewBox="0 0 300 480" fill="none" xmlns="http://www.w3.org/2000/svg">
<path d="M271.688 119.344C307.488 169.344 339.088 209.344 337.688 248.044C336.288 286.644 301.788 323.944 265.988 371.744C230.188 419.544 192.888 478.044 152.288 481.444C111.588 484.844 67.4878 433.244 42.4878 385.444C17.4878 337.644 11.5878 293.544 5.58779 243.444C-0.412206 193.344 -6.5122 137.244 18.4878 87.2438C43.4878 37.2438 99.5878 -6.65622 147.688 1.34378C195.788 9.34378 235.788 69.3438 271.688 119.344Z" fill="#FA4947"/>
<path d="M61.6 318C57.44 318 53.8 316.172 50.68 312.516C47.56 308.859 46 304.594 46 299.719V141.281C46 136.406 47.56 132.141 50.68 128.484C53.8 124.828 57.44 123 61.6 123H238.4C242.56 123 246.2 124.828 249.32 128.484C252.44 132.141 254 136.406 254 141.281V299.719C254 304.594 252.44 308.859 249.32 312.516C246.2 316.172 242.56 318 238.4 318H61.6ZM61.6 299.719H181.46V250.055H61.6V299.719ZM197.06 299.719H238.4V182.109H197.06V299.719ZM61.6 231.773H181.46V182.109H61.6V231.773Z" fill="#FDFFFA"/>
</svg>
