<svg id="visual" viewBox="0 0 900 600" xmlns="http://www.w3.org/2000/svg" xmlns:xlink="http://www.w3.org/1999/xlink" version="1.1"><rect x="0" y="0" width="900" height="600" fill="#00274f"></rect><path d="M0 548L5.5 554.5C11 561 22 574 33.2 576.3C44.3 578.7 55.7 570.3 66.8 566.2C78 562 89 562 100 566.5C111 571 122 580 133.2 583.7C144.3 587.3 155.7 585.7 166.8 580C178 574.3 189 564.7 200 562.2C211 559.7 222 564.3 233.2 569.5C244.3 574.7 255.7 580.3 266.8 578.7C278 577 289 568 300 561.8C311 555.7 322 552.3 333.2 556.7C344.3 561 355.7 573 366.8 573C378 573 389 561 400 557.2C411 553.3 422 557.7 433.2 560.7C444.3 563.7 455.7 565.3 466.8 569.8C478 574.3 489 581.7 500 583.3C511 585 522 581 533.2 578.2C544.3 575.3 555.7 573.7 566.8 571.7C578 569.7 589 567.3 600 570.2C611 573 622 581 633.2 578.5C644.3 576 655.7 563 666.8 557.2C678 551.3 689 552.7 700 552.8C711 553 722 552 733.2 557.5C744.3 563 755.7 575 766.8 576.8C778 578.7 789 570.3 800 567.5C811 564.7 822 567.3 833.2 571.3C844.3 575.3 855.7 580.7 866.8 578C878 575.3 889 564.7 894.5 559.3L900 554" fill="none" stroke-linecap="round" stroke-linejoin="miter" stroke="#fa4947" stroke-width="2"></path></svg>