<svg id="visual" viewBox="0 0 900 600" width="900" height="600" xmlns="http://www.w3.org/2000/svg" xmlns:xlink="http://www.w3.org/1999/xlink" version="1.1"><rect x="0" y="0" width="900" height="600" fill="#00274f"></rect><path d="M0 261L21.5 247.7C43 234.3 86 207.7 128.8 210.8C171.7 214 214.3 247 257.2 244C300 241 343 202 385.8 195.5C428.7 189 471.3 215 514.2 229.7C557 244.3 600 247.7 642.8 250.7C685.7 253.7 728.3 256.3 771.2 249.5C814 242.7 857 226.3 878.5 218.2L900 210L900 601L878.5 601C857 601 814 601 771.2 601C728.3 601 685.7 601 642.8 601C600 601 557 601 514.2 601C471.3 601 428.7 601 385.8 601C343 601 300 601 257.2 601C214.3 601 171.7 601 128.8 601C86 601 43 601 21.5 601L0 601Z" fill="#fa4947"></path><path d="M0 219L21.5 225.8C43 232.7 86 246.3 128.8 265.8C171.7 285.3 214.3 310.7 257.2 303C300 295.3 343 254.7 385.8 241C428.7 227.3 471.3 240.7 514.2 261.5C557 282.3 600 310.7 642.8 302.7C685.7 294.7 728.3 250.3 771.2 245C814 239.7 857 273.3 878.5 290.2L900 307L900 601L878.5 601C857 601 814 601 771.2 601C728.3 601 685.7 601 642.8 601C600 601 557 601 514.2 601C471.3 601 428.7 601 385.8 601C343 601 300 601 257.2 601C214.3 601 171.7 601 128.8 601C86 601 43 601 21.5 601L0 601Z" fill="#e5335e"></path><path d="M0 350L21.5 337.3C43 324.7 86 299.3 128.8 288C171.7 276.7 214.3 279.3 257.2 276.2C300 273 343 264 385.8 265.2C428.7 266.3 471.3 277.7 514.2 290.3C557 303 600 317 642.8 314.2C685.7 311.3 728.3 291.7 771.2 296.7C814 301.7 857 331.3 878.5 346.2L900 361L900 601L878.5 601C857 601 814 601 771.2 601C728.3 601 685.7 601 642.8 601C600 601 557 601 514.2 601C471.3 601 428.7 601 385.8 601C343 601 300 601 257.2 601C214.3 601 171.7 601 128.8 601C86 601 43 601 21.5 601L0 601Z" fill="#c72b6f"></path><path d="M0 329L21.5 333.3C43 337.7 86 346.3 128.8 358.3C171.7 370.3 214.3 385.7 257.2 376.5C300 367.3 343 333.7 385.8 324.2C428.7 314.7 471.3 329.3 514.2 336C557 342.7 600 341.3 642.8 342.5C685.7 343.7 728.3 347.3 771.2 357.3C814 367.3 857 383.7 878.5 391.8L900 400L900 601L878.5 601C857 601 814 601 771.2 601C728.3 601 685.7 601 642.8 601C600 601 557 601 514.2 601C471.3 601 428.7 601 385.8 601C343 601 300 601 257.2 601C214.3 601 171.7 601 128.8 601C86 601 43 601 21.5 601L0 601Z" fill="#a32d78"></path><path d="M0 423L21.5 426.5C43 430 86 437 128.8 439.2C171.7 441.3 214.3 438.7 257.2 434.2C300 429.7 343 423.3 385.8 412.8C428.7 402.3 471.3 387.7 514.2 384.8C557 382 600 391 642.8 398.5C685.7 406 728.3 412 771.2 404C814 396 857 374 878.5 363L900 352L900 601L878.5 601C857 601 814 601 771.2 601C728.3 601 685.7 601 642.8 601C600 601 557 601 514.2 601C471.3 601 428.7 601 385.8 601C343 601 300 601 257.2 601C214.3 601 171.7 601 128.8 601C86 601 43 601 21.5 601L0 601Z" fill="#7b317a"></path><path d="M0 474L21.5 469C43 464 86 454 128.8 448.2C171.7 442.3 214.3 440.7 257.2 436.2C300 431.7 343 424.3 385.8 425.5C428.7 426.7 471.3 436.3 514.2 448.3C557 460.3 600 474.7 642.8 474.5C685.7 474.3 728.3 459.7 771.2 450.5C814 441.3 857 437.7 878.5 435.8L900 434L900 601L878.5 601C857 601 814 601 771.2 601C728.3 601 685.7 601 642.8 601C600 601 557 601 514.2 601C471.3 601 428.7 601 385.8 601C343 601 300 601 257.2 601C214.3 601 171.7 601 128.8 601C86 601 43 601 21.5 601L0 601Z" fill="#523272"></path><path d="M0 518L21.5 517.5C43 517 86 516 128.8 507.2C171.7 498.3 214.3 481.7 257.2 474.5C300 467.3 343 469.7 385.8 480.3C428.7 491 471.3 510 514.2 511.7C557 513.3 600 497.7 642.8 496.2C685.7 494.7 728.3 507.3 771.2 503.3C814 499.3 857 478.7 878.5 468.3L900 458L900 601L878.5 601C857 601 814 601 771.2 601C728.3 601 685.7 601 642.8 601C600 601 557 601 514.2 601C471.3 601 428.7 601 385.8 601C343 601 300 601 257.2 601C214.3 601 171.7 601 128.8 601C86 601 43 601 21.5 601L0 601Z" fill="#2b2e64"></path><path d="M0 512L21.5 516.7C43 521.3 86 530.7 128.8 537.8C171.7 545 214.3 550 257.2 550.7C300 551.3 343 547.7 385.8 543.2C428.7 538.7 471.3 533.3 514.2 530.2C557 527 600 526 642.8 524.3C685.7 522.7 728.3 520.3 771.2 519C814 517.7 857 517.3 878.5 517.2L900 517L900 601L878.5 601C857 601 814 601 771.2 601C728.3 601 685.7 601 642.8 601C600 601 557 601 514.2 601C471.3 601 428.7 601 385.8 601C343 601 300 601 257.2 601C214.3 601 171.7 601 128.8 601C86 601 43 601 21.5 601L0 601Z" fill="#00274f"></path></svg>